<?xml version="1.0" encoding="UTF-8"?>
<!-- Generator: visioncortex VTracer 0.6.3 -->
<svg version="1.1" xmlns="http://www.w3.org/2000/svg" width="1232" height="1280">
<path d="M0 0 C406.56 0 813.12 0 1232 0 C1232 422.4 1232 844.8 1232 1280 C825.44 1280 418.88 1280 0 1280 C0 857.6 0 435.2 0 0 Z " fill="#FAFCFC" transform="translate(0,0)"/>
<path d="M0 0 C31.95 -0.5 63.65 3.02 94.22 12.48 C97.25 13.38 100.33 14.03 103.42 14.68 C108.63 15.82 113.28 17.59 118.14 19.74 C121.09 21 124.07 22.12 127.08 23.2 C135.51 26.23 143.4 29.95 151.34 34.08 C153.38 35.13 155.44 36.15 157.5 37.16 C175.23 45.85 191.52 56.35 207.36 68.11 C208.81 69.16 208.81 69.16 210.28 70.22 C216.73 74.94 222.67 79.97 228.49 85.43 C231.1 87.87 233.75 90.25 236.42 92.61 C243.97 99.39 251.19 106.52 257.77 114.25 C258.8 115.46 259.85 116.65 260.92 117.82 C266.75 124.23 271.81 131.24 276.95 138.21 C278.17 139.86 279.4 141.5 280.63 143.14 C285.19 149.27 289.26 155.61 293.18 162.16 C294.49 164.33 295.84 166.49 297.18 168.65 C306.72 184.09 314.76 200.19 321.36 217.11 C321.8 218.22 322.25 219.33 322.71 220.48 C335.38 252.7 344.48 288.35 345.36 323.11 C345.39 324.02 345.41 324.93 345.44 325.87 C345.52 329.05 345.57 332.24 345.61 335.43 C345.64 336.95 345.64 336.95 345.67 338.5 C345.72 348.19 343.42 356.43 337.36 364.11 C335.64 365.78 333.89 367.31 332.01 368.79 C330.33 370.07 330.33 370.07 328.96 371.65 C326.94 373.5 324.98 374.26 322.42 375.24 C321.57 375.57 320.71 375.9 319.83 376.25 C311.36 379.22 301.08 379.62 292.65 376.29 C285.25 372.49 277.99 368.13 273.36 361.11 C272.96 360.54 272.55 359.97 272.14 359.38 C267.12 351.09 267.14 341.86 266.5 332.44 C266.16 327.38 265.74 322.32 265.33 317.27 C265.25 316.29 265.17 315.31 265.09 314.3 C264.47 306.94 263.61 299.69 262.3 292.43 C262.15 291.59 262 290.75 261.84 289.89 C260.89 284.99 259.56 280.26 258.08 275.5 C256.69 270.92 255.59 266.27 254.42 261.63 C253.39 258.2 252.03 255.27 250.36 252.11 C249.41 249.45 248.55 246.76 247.75 244.05 C246.22 239.14 244.28 234.87 241.64 230.45 C240.36 228.11 240.36 228.11 239 224.88 C229.69 202.74 213.59 182.07 197.5 164.48 C195.63 162.41 193.84 160.31 192.05 158.18 C187.27 152.69 181.77 147.95 176.36 143.11 C175.65 142.46 174.93 141.81 174.2 141.14 C169.76 137.14 165.07 133.62 160.21 130.15 C158.34 128.81 156.48 127.45 154.63 126.07 C149.04 121.9 143.34 118.21 137.27 114.77 C134.57 113.23 131.93 111.62 129.3 109.99 C121.28 105.17 112.7 101.76 103.96 98.49 C101.43 97.52 98.94 96.52 96.45 95.45 C71.48 84.95 42.41 79.76 15.36 79.11 C14.59 79.09 13.82 79.07 13.02 79.05 C-21.81 78.24 -58.68 83.96 -90.64 98.11 C-92.37 98.79 -94.1 99.45 -95.83 100.11 C-109.04 105.41 -121.53 112.69 -133.64 120.11 C-134.34 120.53 -135.04 120.96 -135.76 121.39 C-143.32 126 -150.16 131.48 -157.05 137.03 C-158.8 138.44 -160.56 139.84 -162.32 141.23 C-167.69 145.44 -167.69 145.44 -172.64 150.11 C-173.3 150.77 -173.96 151.43 -174.64 152.11 C-175.3 152.11 -175.96 152.11 -176.64 152.11 C-176.98 152.92 -176.98 152.92 -177.33 153.74 C-180.2 158.94 -184.47 162.94 -188.64 167.11 C-201.98 180.81 -214.2 197.94 -222.64 215.11 C-223.59 216.86 -224.54 218.62 -225.49 220.36 C-229.35 227.45 -232.72 234.58 -235.64 242.11 C-236.1 243.24 -236.56 244.37 -237.03 245.54 C-247.7 272.27 -254.35 301.3 -254.64 330.11 C-254.67 331.55 -254.67 331.55 -254.7 333.02 C-255.45 371.98 -248.87 410.08 -233.64 446.11 C-233.34 446.86 -233.04 447.61 -232.73 448.39 C-229.7 455.64 -225.59 462.34 -221.64 469.11 C-220.96 470.31 -220.28 471.51 -219.6 472.71 C-214.84 480.98 -209.61 488.67 -203.64 496.11 C-202.23 497.9 -200.83 499.69 -199.42 501.49 C-196.5 505.22 -193.57 508.95 -190.61 512.65 C-188.33 515.5 -186.11 518.4 -183.89 521.3 C-180.82 525.31 -177.71 529.27 -174.52 533.18 C-170.97 537.59 -167.85 542.2 -164.76 546.94 C-162.95 549.66 -161.06 552.3 -159.13 554.93 C-152.83 563.52 -147.43 572.58 -142.04 581.76 C-140.8 583.85 -139.54 585.92 -138.27 587.99 C-132.75 596.96 -127.85 606.2 -123.02 615.56 C-119.83 622.16 -119.83 622.16 -114.64 627.11 C-112.69 627.43 -112.69 627.43 -110.52 627.41 C-109.68 627.42 -108.83 627.44 -107.97 627.45 C-107.04 627.46 -106.11 627.46 -105.16 627.47 C-104.18 627.48 -103.19 627.5 -102.18 627.51 C-98.87 627.55 -95.56 627.58 -92.24 627.61 C-89.88 627.64 -87.51 627.67 -85.14 627.69 C-77.35 627.78 -69.55 627.85 -61.76 627.91 C-61.1 627.91 -60.44 627.92 -59.75 627.92 C-46.59 628.02 -33.42 628.1 -20.25 628.16 C-17.36 628.17 -14.46 628.18 -11.57 628.2 C-10.49 628.2 -10.49 628.2 -9.39 628.21 C2.26 628.26 13.9 628.39 25.55 628.53 C37.51 628.68 49.47 628.77 61.43 628.79 C68.15 628.81 74.86 628.86 81.58 628.97 C87.9 629.08 94.21 629.11 100.53 629.07 C102.85 629.07 105.17 629.1 107.48 629.17 C119.05 629.89 119.05 629.89 129.25 625.48 C132.5 621.48 134.6 617.09 136.48 612.32 C137.87 608.83 139.6 605.52 141.3 602.18 C141.94 600.87 142.58 599.56 143.22 598.25 C145.6 593.54 148.29 589.04 151.05 584.55 C151.5 583.81 151.95 583.07 152.42 582.31 C154.53 578.91 156.7 575.59 159.05 572.35 C160.81 569.89 162.26 567.61 163.61 564.93 C166.28 559.99 169.61 555.69 173.02 551.25 C176.03 547.21 178.79 543.03 181.54 538.8 C183.36 536.11 185.21 533.56 187.36 531.11 C188.02 531.11 188.68 531.11 189.36 531.11 C189.59 530.42 189.82 529.73 190.05 529.01 C191.64 525.49 193.82 522.71 196.23 519.74 C196.72 519.13 197.2 518.53 197.7 517.9 C199.25 515.97 200.8 514.04 202.36 512.11 C203.9 510.2 205.43 508.29 206.96 506.38 C207.98 505.12 209 503.85 210.03 502.6 C212.35 499.72 214.52 496.88 216.55 493.78 C222.03 485.51 228.11 482.12 236.89 478.25 C241.77 476 246.49 473.44 251.23 470.93 C254.04 469.45 256.84 467.98 259.65 466.52 C261.48 465.57 263.31 464.61 265.14 463.64 C266.02 463.18 266.9 462.72 267.8 462.25 C268.59 461.84 269.37 461.43 270.17 461 C272.36 460.11 272.36 460.11 276.36 460.11 C276.36 459.45 276.36 458.79 276.36 458.11 C299.07 446.66 299.07 446.66 310.08 441.66 C312.68 440.47 315.09 439.31 317.38 437.58 C319.61 435.93 321.94 434.94 324.49 433.9 C327.6 432.59 330.6 431.07 333.61 429.55 C334.29 429.21 334.97 428.87 335.68 428.51 C341.11 425.78 346.49 422.96 351.86 420.11 C365.02 413.16 378.34 406.64 391.79 400.26 C398.38 397.11 404.86 393.79 411.29 390.31 C416.71 387.41 422.23 384.79 427.82 382.22 C435.84 378.48 443.63 374.31 451.43 370.13 C452.07 369.8 452.7 369.46 453.36 369.11 C453.95 368.77 454.54 368.42 455.15 368.07 C457.82 366.92 459.81 366.85 462.71 366.83 C463.81 366.82 464.9 366.81 466.02 366.8 C467.22 366.8 468.42 366.8 469.65 366.79 C470.92 366.78 472.2 366.77 473.51 366.76 C477.04 366.74 480.57 366.72 484.09 366.71 C487.89 366.69 491.68 366.67 495.47 366.64 C502.88 366.59 510.29 366.56 517.69 366.52 C523.69 366.5 529.69 366.47 535.69 366.43 C559.69 366.3 583.7 366.2 607.7 366.12 C610.34 366.11 612.99 366.1 615.63 366.09 C637.89 366.02 660.14 365.96 682.39 365.94 C687.77 365.93 693.15 365.92 698.52 365.9 C705.05 365.89 711.58 365.88 718.11 365.88 C721.43 365.88 724.74 365.88 728.06 365.87 C731.64 365.86 735.22 365.86 738.8 365.87 C739.85 365.86 740.91 365.86 741.99 365.85 C742.94 365.86 743.89 365.86 744.87 365.87 C745.7 365.87 746.52 365.86 747.37 365.86 C749.36 366.11 749.36 366.11 751.36 368.11 C751.55 371.2 751.62 374.19 751.6 377.28 C751.6 378.24 751.6 379.2 751.61 380.19 C751.61 383.43 751.6 386.67 751.59 389.91 C751.59 392.23 751.59 394.54 751.59 396.86 C751.59 403.16 751.58 409.47 751.56 415.77 C751.55 422.35 751.55 428.93 751.55 435.51 C751.54 446.56 751.53 457.62 751.51 468.67 C751.49 480.05 751.48 491.44 751.47 502.82 C751.47 503.52 751.47 504.22 751.47 504.95 C751.47 508.46 751.46 511.98 751.46 515.5 C751.44 544.71 751.4 573.91 751.36 603.11 C714.32 603.32 677.29 603.48 640.25 603.57 C635.87 603.58 631.49 603.6 627.11 603.61 C625.8 603.61 625.8 603.61 624.47 603.61 C610.38 603.65 596.29 603.72 582.2 603.81 C567.73 603.89 553.26 603.94 538.79 603.96 C529.87 603.97 520.95 604.01 512.03 604.08 C505.9 604.13 499.77 604.15 493.64 604.13 C490.11 604.13 486.59 604.14 483.06 604.19 C466.67 604.38 455.06 603.4 441.36 594.11 C439.61 593.22 437.86 592.35 436.07 591.55 C435.35 591.21 434.62 590.88 433.87 590.53 C433.17 590.21 432.46 589.88 431.73 589.55 C425.35 586.58 419.1 583.43 412.92 580.06 C408.35 577.59 403.7 575.35 398.98 573.18 C393.18 570.49 387.49 567.65 381.86 564.61 C376.27 561.6 370.63 558.77 364.86 556.11 C358.36 553.12 352.04 549.87 345.75 546.47 C340.75 543.8 335.69 541.35 330.55 538.99 C324.57 536.24 318.93 533.18 313.28 529.79 C303.84 524.18 303.84 524.18 293.36 522.11 C291.66 524.07 291.66 524.07 290.23 526.74 C284.13 536.87 277.27 546.26 269.54 555.21 C265.16 560.3 261.03 565.55 256.91 570.85 C254.77 573.6 252.57 576.3 250.36 578.99 C234.09 599.27 221 622.47 208.36 645.11 C207.93 645.89 207.5 646.66 207.05 647.46 C201.6 657.24 196.26 667.04 191.36 677.11 C190.87 678.09 190.38 679.06 189.88 680.06 C188.89 682.05 187.93 684.06 187 686.08 C182.75 695.15 178.4 701.31 169.04 705.29 C163.84 706.88 158.58 706.66 153.19 706.62 C151.23 706.63 151.23 706.63 149.23 706.64 C145.61 706.66 142 706.65 138.39 706.64 C134.49 706.63 130.59 706.64 126.69 706.65 C119.05 706.67 111.42 706.67 103.78 706.65 C97.57 706.65 91.36 706.64 85.16 706.65 C84.27 706.65 83.39 706.65 82.48 706.65 C80.68 706.65 78.88 706.65 77.09 706.65 C60.25 706.67 43.42 706.65 26.58 706.63 C12.14 706.61 -2.3 706.62 -16.74 706.63 C-33.51 706.66 -50.29 706.66 -67.07 706.65 C-68.86 706.65 -70.65 706.65 -72.44 706.65 C-73.32 706.65 -74.2 706.65 -75.11 706.65 C-81.31 706.64 -87.5 706.65 -93.7 706.66 C-101.26 706.67 -108.81 706.67 -116.37 706.65 C-120.22 706.63 -124.08 706.63 -127.93 706.64 C-132.11 706.66 -136.29 706.64 -140.47 706.62 C-141.68 706.63 -142.9 706.64 -144.15 706.65 C-154.22 706.56 -161.45 703.99 -168.85 697.11 C-171.89 693.72 -173.81 689.94 -175.77 685.86 C-176.62 684.16 -177.47 682.46 -178.33 680.77 C-178.73 679.96 -179.13 679.15 -179.54 678.32 C-180.88 675.64 -182.31 673.03 -183.77 670.43 C-185.63 667.04 -187.37 663.62 -189.04 660.13 C-195.71 646.33 -203.77 633.25 -211.64 620.11 C-212.13 619.3 -212.62 618.48 -213.12 617.64 C-223.96 599.62 -235.61 581.81 -249.64 566.11 C-266.36 546.16 -282.77 525.39 -294.64 502.11 C-295.01 501.4 -295.37 500.68 -295.75 499.95 C-296.72 498.01 -297.68 496.06 -298.64 494.11 C-298.99 493.42 -299.34 492.73 -299.7 492.02 C-300.05 491.33 -300.4 490.64 -300.77 489.93 C-301.08 489.31 -301.39 488.7 -301.71 488.07 C-302.79 485.79 -303.7 483.46 -304.64 481.11 C-305.39 479.53 -306.14 477.94 -306.89 476.36 C-309.94 469.68 -312.32 462.81 -314.68 455.86 C-315.43 453.71 -316.22 451.56 -317.02 449.43 C-320.93 438.91 -323.62 428.42 -325.83 417.43 C-326.08 416.18 -326.08 416.18 -326.34 414.91 C-328.98 402.04 -331.33 389.2 -332.64 376.11 C-332.74 375.15 -332.84 374.18 -332.94 373.19 C-337.45 328.7 -332.39 284.04 -319.29 241.32 C-318.89 239.96 -318.52 238.59 -318.19 237.2 C-313.66 219.94 -305.42 202.96 -297.45 187.05 C-297.13 186.4 -296.81 185.75 -296.47 185.08 C-292.34 176.78 -287.77 168.93 -282.67 161.19 C-280.79 158.34 -278.99 155.46 -277.2 152.55 C-273.83 147.23 -270.02 142.29 -266.13 137.33 C-263.78 134.32 -261.55 131.23 -259.33 128.11 C-256.67 124.43 -253.94 121.25 -250.64 118.11 C-246.34 113.44 -242.13 108.7 -238.02 103.86 C-235.32 100.76 -232.44 98.1 -229.27 95.48 C-226.04 92.76 -223.17 89.67 -220.27 86.61 C-217.74 84.21 -215.17 82.32 -212.31 80.35 C-210.45 79.04 -210.45 79.04 -208.39 76.8 C-205.07 73.55 -201.45 70.99 -197.68 68.3 C-194.57 66.07 -191.55 63.75 -188.52 61.43 C-184.37 58.3 -180.24 55.63 -175.64 53.22 C-173.72 52.16 -172.02 50.99 -170.27 49.68 C-163.47 44.67 -155.67 41.06 -148.12 37.34 C-146.42 36.5 -144.72 35.64 -143.04 34.76 C-138.29 32.31 -133.85 30.36 -128.64 29.11 C-128.64 28.45 -128.64 27.79 -128.64 27.11 C-128.04 26.94 -127.43 26.77 -126.81 26.6 C-120.56 24.78 -114.56 22.58 -108.52 20.18 C-101 17.25 -93.62 14.88 -85.76 13.11 C-82.41 12.33 -79.15 11.37 -75.87 10.34 C-66 7.26 -56.11 5.4 -45.89 3.86 C-45.06 3.74 -44.23 3.61 -43.37 3.48 C-31.63 1.68 -20 0.17 -8.11 0.12 C-5.4 0.11 -2.7 0.06 0 0 Z " fill="#000002" transform="translate(339.640625,91.88671875)"/>
<path d="M0 0 C1.07 -0 2.14 -0 3.24 -0.01 C6.83 -0.01 10.41 -0 13.99 0 C16.56 0 19.13 0 21.71 -0 C27.96 -0.01 34.22 -0 40.47 0.01 C47.77 0.02 55.07 0.02 62.36 0.02 C75.39 0.02 88.41 0.03 101.44 0.04 C114.06 0.06 126.68 0.06 139.3 0.06 C140.08 0.06 140.85 0.06 141.65 0.06 C142.43 0.06 143.2 0.06 144 0.06 C158.39 0.06 172.78 0.07 187.17 0.08 C192.24 0.08 197.32 0.08 202.39 0.08 C209.24 0.08 216.09 0.09 222.94 0.1 C225.44 0.1 227.95 0.1 230.46 0.1 C268.6 0.1 268.6 0.1 280.14 9.62 C289.87 21.65 294.53 31.38 293.26 47.25 C290.92 58.69 284.82 67.57 275.26 74.25 C265.9 79.17 256.49 79.4 246.14 79.38 C245.04 79.38 243.94 79.39 242.81 79.39 C239.13 79.39 235.46 79.39 231.79 79.39 C229.15 79.4 226.51 79.4 223.87 79.4 C217.46 79.41 211.04 79.41 204.62 79.41 C199.41 79.41 194.19 79.42 188.98 79.42 C174.18 79.43 159.38 79.43 144.58 79.43 C143.79 79.43 142.99 79.43 142.17 79.43 C141.37 79.43 140.57 79.43 139.75 79.43 C126.81 79.43 113.88 79.44 100.94 79.46 C87.65 79.47 74.35 79.48 61.06 79.48 C53.6 79.48 46.14 79.48 38.68 79.49 C32.33 79.5 25.98 79.5 19.63 79.49 C16.4 79.49 13.16 79.49 9.92 79.5 C6.41 79.51 2.89 79.5 -0.62 79.49 C-1.64 79.5 -2.65 79.5 -3.7 79.51 C-17.14 79.44 -28.03 74.66 -37.8 65.35 C-44.87 57.68 -46.76 48.47 -46.74 38.25 C-45.6 27.38 -41.25 18.13 -33.74 10.25 C-23.99 2.54 -12.12 -0.06 0 0 Z " fill="#000002" transform="translate(221.73880004882813,980.7527618408203)"/>
<path d="M0 0 C0.96 -0 1.92 -0.01 2.91 -0.01 C3.97 -0.01 5.03 -0.01 6.12 -0.01 C7.81 -0.01 7.81 -0.01 9.53 -0.02 C13.31 -0.03 17.1 -0.03 20.88 -0.03 C23.58 -0.03 26.29 -0.04 28.99 -0.04 C36.36 -0.06 43.72 -0.06 51.09 -0.07 C55.68 -0.07 60.28 -0.08 64.88 -0.08 C77.62 -0.09 90.35 -0.1 103.08 -0.11 C103.9 -0.11 104.71 -0.11 105.55 -0.11 C106.37 -0.11 107.19 -0.11 108.03 -0.11 C109.69 -0.11 111.34 -0.11 113 -0.11 C114.23 -0.11 114.23 -0.11 115.49 -0.11 C128.79 -0.11 142.09 -0.13 155.39 -0.15 C169.05 -0.18 182.71 -0.19 196.37 -0.19 C204.04 -0.19 211.7 -0.2 219.37 -0.22 C225.9 -0.23 232.43 -0.24 238.97 -0.23 C242.3 -0.22 245.63 -0.23 248.96 -0.24 C252.57 -0.25 256.19 -0.25 259.81 -0.24 C260.85 -0.24 261.9 -0.25 262.97 -0.26 C273.24 -0.19 282.02 2.58 289.91 9.32 C299.03 19.84 303.41 30.02 302.78 43.94 C301.89 54.87 296.26 62.87 288.35 70.13 C279.58 77.35 268.77 78.58 257.76 78.51 C256.65 78.52 255.54 78.52 254.39 78.53 C250.69 78.54 246.99 78.53 243.29 78.52 C240.62 78.52 237.96 78.53 235.29 78.54 C228.82 78.55 222.35 78.55 215.88 78.54 C210.62 78.53 205.36 78.53 200.1 78.53 C199.35 78.53 198.6 78.53 197.82 78.53 C196.3 78.54 194.77 78.54 193.25 78.54 C178.97 78.55 164.69 78.54 150.42 78.52 C138.18 78.51 125.94 78.51 113.71 78.52 C99.48 78.54 85.25 78.54 71.02 78.54 C69.5 78.53 67.98 78.53 66.46 78.53 C65.71 78.53 64.97 78.53 64.2 78.53 C58.94 78.53 53.69 78.53 48.44 78.54 C42.04 78.55 35.63 78.55 29.23 78.53 C25.96 78.52 22.7 78.52 19.44 78.53 C15.89 78.54 12.35 78.53 8.8 78.51 C7.27 78.52 7.27 78.52 5.7 78.53 C-6.69 78.43 -18.51 74.44 -27.53 65.76 C-36.41 56.29 -37.14 47.05 -36.93 34.56 C-36.48 23.79 -30.52 15.66 -22.97 8.38 C-18.4 4.52 -13.31 2.83 -7.65 1.13 C-4.78 0.17 -2.99 0 0 0 Z " fill="#000002" transform="translate(212.65439796447754,850.8685722351074)"/>
<path d="M0 0 C1.6 2.83 2.25 4.88 2.28 8.13 C2.29 8.94 2.3 9.75 2.31 10.59 C2.31 11.47 2.32 12.36 2.32 13.27 C2.33 14.2 2.34 15.14 2.35 16.11 C2.38 19.2 2.4 22.3 2.41 25.39 C2.43 27.54 2.45 29.68 2.47 31.83 C2.52 37.48 2.56 43.13 2.6 48.78 C2.64 54.54 2.69 60.31 2.74 66.07 C2.84 77.38 2.92 88.69 3 100 C3.99 100.33 4.98 100.66 6 101 C6.21 100.42 6.41 99.85 6.62 99.25 C8.5 96.18 10.95 94.75 14 93 C14.72 92.55 15.45 92.1 16.2 91.64 C23.99 87.19 31.41 86.9 40.12 88.69 C55.41 93.25 64.41 103.49 72 117 C85.54 143.33 87.47 169.85 87 199 C86.99 199.8 86.97 200.61 86.96 201.44 C86.31 231.5 76.37 258.46 54.77 279.61 C48.9 284.68 42.41 286.31 35 288 C34.34 288.33 33.68 288.66 33 289 C27.7 289.38 24.16 288.58 19.38 286.31 C18.29 285.81 17.2 285.31 16.09 284.8 C12.81 282.89 10.58 280.76 8 278 C6.35 276.64 4.69 275.3 3 274 C2.5 279.94 2.5 279.94 2 286 C1.34 285.34 0.68 284.68 0 284 C-2.17 283.71 -2.17 283.71 -4.69 283.79 C-6.15 283.79 -6.15 283.79 -7.65 283.8 C-8.7 283.81 -9.76 283.83 -10.84 283.84 C-11.92 283.85 -13 283.85 -14.12 283.86 C-17.58 283.87 -21.04 283.9 -24.5 283.94 C-27.96 283.97 -31.42 283.99 -34.88 284.01 C-37.04 284.02 -39.2 284.04 -41.35 284.06 C-42.33 284.07 -43.3 284.08 -44.31 284.08 C-45.17 284.09 -46.03 284.1 -46.91 284.11 C-49 284 -49 284 -51 283 C-50.67 281.35 -50.34 279.7 -50 278 C-44.06 278 -38.12 278 -32 278 C-32.5 143.36 -32.5 143.36 -33 6 C-38.28 5.67 -43.56 5.34 -49 5 C-49.66 3.68 -50.32 2.36 -51 1 C-33.99 0.17 -17.03 -0.14 0 0 Z " fill="#79797B" transform="translate(472,231)"/>
<path d="M0 0 C3.87 6.4 6.89 13.12 9.94 19.94 C10.22 20.57 10.5 21.19 10.79 21.84 C17.59 37.07 23.86 52.5 30 68 C30.48 69.22 30.97 70.44 31.46 71.69 C44.66 105.1 56.86 138.91 68.96 172.73 C73.66 185.86 78.41 198.96 83.27 212.03 C83.77 213.39 84.28 214.76 84.79 216.12 C86.46 220.64 88.15 225.15 89.85 229.66 C90.4 231.1 90.94 232.54 91.47 233.98 C101.92 262.7 101.92 262.7 124.06 282.21 C129.03 284.24 134.29 285.28 139.54 286.31 C143 287 143 287 145 288 C145.81 290.88 145.81 290.88 146 294 C144.35 296.34 143.34 296.93 140.52 297.51 C139.63 297.57 138.73 297.63 137.81 297.69 C136.91 297.75 136.01 297.82 135.08 297.89 C134.39 297.92 133.71 297.96 133 298 C132.34 296.68 131.68 295.36 131 294 C118.29 293.93 105.58 293.88 92.87 293.84 C86.97 293.83 81.07 293.81 75.17 293.77 C69.48 293.74 63.79 293.72 58.09 293.72 C55.92 293.71 53.75 293.7 51.57 293.68 C48.53 293.66 45.49 293.66 42.45 293.66 C41.55 293.65 40.65 293.64 39.72 293.63 C35.1 293.65 32.53 293.74 29 297 C24.96 296.09 22.72 294.03 20 291 C23.62 286.13 28.05 285.89 33.69 285 C45.3 283.18 45.3 283.18 55 277 C61.76 263.47 53.35 244.62 49 231.5 C45.32 220.6 41.46 209.76 37.56 198.94 C37.3 198.2 37.04 197.47 36.77 196.71 C36.02 194.63 35.26 192.55 34.5 190.46 C34.07 189.26 33.63 188.06 33.19 186.83 C32.18 183.93 32.18 183.93 30 182 C27 181.69 27 181.69 23.38 181.73 C22.68 181.73 21.98 181.73 21.26 181.73 C18.88 181.72 16.5 181.74 14.12 181.75 C12.89 181.75 12.89 181.75 11.63 181.76 C-15.25 181.82 -42.14 182.99 -69 184 C-71.85 190.71 -74.62 197.4 -76.94 204.31 C-77.18 205.03 -77.43 205.76 -77.68 206.51 C-78.46 208.82 -79.23 211.13 -80 213.44 C-80.26 214.23 -80.53 215.02 -80.8 215.84 C-91.07 242.28 -91.07 242.28 -89.5 269.38 C-85.28 276.55 -77.48 280.48 -69.69 282.64 C-66.33 283.47 -62.96 284.26 -59.59 285.02 C-58.36 285.32 -58.36 285.32 -57.11 285.62 C-56.36 285.79 -55.62 285.96 -54.86 286.13 C-53 287 -53 287 -51.72 288.91 C-50.8 291.59 -51.25 293.31 -52 296 C-52.58 295.68 -53.16 295.35 -53.75 295.02 C-56.07 293.97 -57.47 293.75 -59.99 293.73 C-60.78 293.73 -61.56 293.72 -62.37 293.71 C-63.22 293.71 -64.07 293.71 -64.94 293.71 C-65.85 293.71 -66.75 293.7 -67.68 293.69 C-69.64 293.68 -71.6 293.67 -73.55 293.66 C-76.65 293.66 -79.75 293.64 -82.85 293.61 C-90.54 293.56 -98.23 293.52 -105.92 293.48 C-112.42 293.45 -118.92 293.41 -125.42 293.36 C-128.47 293.34 -131.53 293.34 -134.58 293.33 C-136.45 293.31 -138.32 293.3 -140.19 293.29 C-141.04 293.29 -141.89 293.29 -142.77 293.29 C-146.69 293.25 -148.67 293.22 -152 291 C-151.54 288.68 -151.54 288.68 -150 286 C-147.28 284.6 -144.38 283.87 -141.44 283.06 C-127.36 278.73 -118.39 271.4 -111.01 258.53 C-104.15 245.02 -99.22 230.45 -93.87 216.3 C-92.97 213.92 -92.07 211.55 -91.17 209.18 C-84.26 190.94 -77.47 172.66 -71 154.26 C-65.89 139.76 -60.45 125.38 -55 111 C-54.62 110 -54.24 109.01 -53.86 107.98 C-51.93 102.88 -49.98 97.79 -48.03 92.7 C-46.87 89.65 -45.7 86.59 -44.54 83.54 C-39.85 71.29 -35.07 59.09 -30 47 C-29.12 44.9 -28.25 42.79 -27.38 40.69 C-26.98 39.74 -26.58 38.8 -26.18 37.82 C-25.38 35.9 -24.58 33.98 -23.79 32.05 C-21.16 25.65 -18.36 19.34 -15.42 13.07 C-13.82 9.61 -12.32 6.12 -10.86 2.61 C-8.76 -1.33 -3.84 -0.06 0 0 Z " fill="#BD8F04" transform="translate(258,223)"/>
<path d="M0 0 C1.19 0.01 2.38 0.02 3.6 0.03 C4.52 0.04 5.43 0.05 6.38 0.06 C6.38 0.72 6.38 1.38 6.38 2.06 C7.04 2.39 7.69 2.72 8.38 3.06 C8.39 39.89 8.41 76.71 8.42 113.54 C8.42 114.62 8.42 114.62 8.42 115.72 C8.46 192.91 8.48 270.1 8.5 347.29 C8.5 349.01 8.5 350.72 8.5 352.43 C8.51 388.41 8.52 424.39 8.53 460.36 C8.53 478.43 8.54 496.51 8.54 514.58 C8.54 517.3 8.54 520.03 8.54 522.75 C8.55 564.75 8.56 606.74 8.58 648.73 C8.58 649.63 8.58 650.53 8.58 651.47 C8.59 666.03 8.6 680.59 8.6 695.16 C8.62 737.09 8.64 779.02 8.65 820.96 C8.65 821.82 8.65 822.68 8.65 823.57 C8.65 842.49 8.66 861.4 8.66 880.32 C8.66 887.93 8.66 895.54 8.66 903.15 C8.66 903.98 8.66 904.82 8.66 905.67 C8.66 932.54 8.68 959.41 8.69 986.27 C8.71 1013.32 8.72 1040.37 8.72 1067.42 C8.72 1071.15 8.71 1074.88 8.71 1078.62 C8.71 1079.35 8.71 1080.08 8.71 1080.83 C8.71 1092.45 8.72 1104.06 8.74 1115.68 C8.75 1127.08 8.75 1138.49 8.74 1149.89 C8.74 1156 8.74 1162.11 8.75 1168.21 C8.76 1173.76 8.76 1179.3 8.75 1184.85 C8.75 1186.85 8.75 1188.86 8.76 1190.86 C8.77 1193.57 8.76 1196.27 8.75 1198.97 C8.76 1199.76 8.76 1200.54 8.77 1201.35 C8.72 1206.57 8.72 1206.57 7 1209.04 C4.76 1210.45 3.13 1210.46 0.5 1210.44 C-0.34 1210.45 -1.19 1210.45 -2.05 1210.46 C-5.37 1209.95 -7.03 1209.23 -9.62 1207.06 C-10.13 1204.17 -10.29 1201.86 -10.24 1198.96 C-10.25 1198.12 -10.25 1197.27 -10.26 1196.41 C-10.27 1193.56 -10.25 1190.71 -10.22 1187.86 C-10.23 1185.8 -10.23 1183.74 -10.24 1181.68 C-10.25 1175.97 -10.23 1170.27 -10.2 1164.56 C-10.18 1158.37 -10.19 1152.18 -10.19 1145.99 C-10.19 1135.12 -10.17 1124.26 -10.14 1113.39 C-10.11 1101.73 -10.09 1090.07 -10.08 1078.4 C-10.08 1077.67 -10.08 1076.93 -10.08 1076.17 C-10.08 1072.42 -10.08 1068.67 -10.08 1064.92 C-10.06 1037.75 -10.02 1010.57 -9.97 983.4 C-9.92 956.48 -9.87 929.56 -9.85 902.65 C-9.85 901.81 -9.85 900.98 -9.84 900.11 C-9.84 892.48 -9.83 884.85 -9.82 877.22 C-9.8 858.26 -9.78 839.29 -9.76 820.32 C-9.76 819.02 -9.76 819.02 -9.76 817.7 C-9.71 775.66 -9.64 733.62 -9.57 691.58 C-9.55 676.99 -9.53 662.39 -9.5 647.8 C-9.5 646.9 -9.5 645.99 -9.5 645.06 C-9.43 603 -9.38 560.94 -9.33 518.89 C-9.33 516.16 -9.32 513.43 -9.32 510.7 C-9.3 492.61 -9.28 474.52 -9.26 456.43 C-9.21 420.43 -9.17 384.43 -9.13 348.44 C-9.12 346.72 -9.12 345.01 -9.12 343.3 C-9.02 266.1 -8.91 188.91 -8.8 111.72 C-8.8 111 -8.79 110.28 -8.79 109.53 C-8.74 73.38 -8.68 37.22 -8.62 1.06 C-5.74 -0.38 -3.21 -0.03 0 0 Z " fill="#3A3B3C" transform="translate(1194.625,53.9375)"/>
<path d="M0 0 C17.23 6.59 30.87 20.04 38.54 36.79 C39.1 38.19 39.64 39.61 40.16 41.04 C40.45 41.78 40.73 42.53 41.02 43.3 C46.11 57.44 45.82 75.54 39.59 89.26 C38.88 90.63 38.88 90.63 38.16 92.04 C37.74 92.89 37.32 93.74 36.88 94.62 C28.04 110.88 13.84 120.77 -3.09 127.29 C-13.51 130.13 -21.33 129.83 -30.84 125.04 C-32.16 124.42 -33.48 123.81 -34.8 123.2 C-41.91 119.92 -48.92 116.56 -55.75 112.74 C-60 110.39 -64.3 108.12 -68.59 105.85 C-69.39 105.42 -70.2 104.99 -71.03 104.55 C-75.56 102.16 -80.12 100.03 -84.84 98.04 C-87.44 96.8 -90.02 95.52 -92.59 94.22 C-93.63 93.7 -93.63 93.7 -94.7 93.17 C-99.7 90.65 -104.63 88.01 -109.51 85.26 C-111.78 84.01 -111.78 84.01 -114.08 83.18 C-118.16 81.48 -121.97 79.18 -125.84 77.04 C-125.84 67.8 -125.84 58.56 -125.84 49.04 C-111.54 41.09 -97.14 33.68 -82.36 26.67 C-75.77 23.54 -69.24 20.28 -62.73 16.99 C-59.44 15.33 -56.14 13.68 -52.84 12.04 C-51.52 11.38 -50.2 10.71 -48.88 10.05 C-42.2 6.71 -35.52 3.38 -28.84 0.04 C-27.81 -0.53 -26.77 -1.09 -25.71 -1.68 C-17.68 -5.28 -7.98 -2.71 0 0 Z " fill="#FAFCFC" transform="translate(832.83984375,513.96484375)"/>
<path d="M0 0 C1.01 -0 1.01 -0 2.04 -0.01 C4.31 -0.01 6.58 -0.01 8.85 -0.01 C10.47 -0.01 12.1 -0.02 13.72 -0.02 C18.13 -0.03 22.55 -0.03 26.96 -0.03 C30.64 -0.03 34.33 -0.04 38.01 -0.04 C46.69 -0.05 55.37 -0.05 64.05 -0.05 C73.01 -0.05 81.98 -0.06 90.95 -0.08 C98.63 -0.09 106.32 -0.1 114.01 -0.1 C118.61 -0.09 123.2 -0.1 127.8 -0.11 C132.12 -0.12 136.44 -0.12 140.76 -0.11 C142.35 -0.11 143.94 -0.11 145.53 -0.12 C147.69 -0.13 149.86 -0.12 152.02 -0.11 C153.84 -0.11 153.84 -0.11 155.69 -0.12 C158.51 0.13 158.51 0.13 160.51 2.13 C161.23 19.66 150.71 38.7 139.46 51.46 C123.32 68.34 101.5 78.62 78.13 79.38 C65.28 79.24 53.06 76.79 41.51 71.13 C40.39 70.64 39.27 70.15 38.12 69.64 C28.9 65.4 21.92 59.98 14.51 53.13 C13.83 52.55 13.16 51.97 12.46 51.36 C0.17 40.21 -6.64 23.33 -8.49 7.13 C-8.62 3.45 -8.62 3.45 -8.49 1.13 C-5.63 -0.3 -3.2 0 0 0 Z " fill="#000002" transform="translate(269.4910888671875,1111.8662872314453)"/>
<path d="M0 0 C1.54 -0.04 1.54 -0.04 3.12 -0.08 C9.33 0.6 12.71 4.58 16.55 9.13 C18.75 12.09 19.9 14.77 21.12 18.25 C21.5 19.24 21.87 20.23 22.25 21.25 C24.34 28.41 24.28 35.49 24.3 42.9 C24.31 44.63 24.31 44.63 24.32 46.4 C24.34 50.21 24.35 54.03 24.36 57.84 C24.37 59.15 24.37 60.46 24.38 61.81 C24.39 68.02 24.41 74.24 24.42 80.46 C24.43 87.59 24.45 94.72 24.49 101.85 C24.52 107.39 24.54 112.94 24.54 118.48 C24.54 121.77 24.56 125.07 24.58 128.36 C24.82 164.3 24.82 164.3 15.7 174.7 C10.85 179.46 7.66 182.05 0.75 182.44 C-8.08 181.98 -12.96 177.39 -18.88 171.25 C-25.36 163.12 -25.17 152.66 -25.15 142.76 C-25.15 141.54 -25.16 140.32 -25.17 139.06 C-25.18 135.74 -25.18 132.41 -25.18 129.09 C-25.18 126.3 -25.18 123.51 -25.19 120.72 C-25.2 114.14 -25.2 107.55 -25.19 100.97 C-25.18 94.21 -25.2 87.44 -25.22 80.68 C-25.24 74.85 -25.24 69.01 -25.24 63.18 C-25.24 59.71 -25.24 56.24 -25.25 52.76 C-25.27 48.88 -25.26 45.01 -25.25 41.13 C-25.26 39.43 -25.26 39.43 -25.27 37.7 C-25.19 25.37 -22.95 14.37 -14.04 5.4 C-9.46 1.31 -6.22 0.09 0 0 Z " fill="#FAFCFC" transform="translate(498.875,327.75)"/>
<path d="M0 0 C4.6 3.99 6.48 7.78 8.56 13.44 C9.26 15.25 9.96 17.07 10.66 18.88 C11.03 19.87 11.41 20.85 11.79 21.87 C13.51 26.31 15.3 30.73 17.08 35.15 C22.47 48.49 27.7 61.89 32.88 75.31 C33.19 76.12 33.5 76.93 33.82 77.76 C35.91 83.17 37.97 88.58 40 94 C40.29 94.78 40.59 95.56 40.89 96.37 C41.75 98.67 42.6 100.98 43.45 103.29 C43.83 104.33 43.83 104.33 44.23 105.38 C45.69 109.43 46.1 112.72 46 117 C45.19 117 44.39 117 43.56 116.99 C35.87 116.97 28.18 116.96 20.49 116.95 C16.54 116.94 12.59 116.94 8.64 116.92 C-8.6 116.88 -25.79 116.89 -43 118 C-44.34 113.68 -43.18 110.59 -41.75 106.44 C-41.51 105.7 -41.26 104.96 -41.01 104.2 C-40.2 101.79 -39.38 99.4 -38.56 97 C-38 95.34 -37.44 93.69 -36.88 92.03 C-33.51 82.13 -29.94 72.35 -25.91 62.68 C-24.09 58.28 -22.44 53.83 -20.8 49.35 C-17.2 39.54 -13.34 29.88 -9.12 20.31 C-8.66 19.26 -8.2 18.2 -7.72 17.11 C-4.4 9.67 -4.4 9.67 -2.39 6.32 C-1.09 4.16 -0.46 2.46 0 0 Z " fill="#FBFDFD" transform="translate(238,274)"/>
<path d="M0 0 C1.43 -0 1.43 -0 2.9 -0 C6.06 0 9.22 0.02 12.38 0.05 C14.57 0.05 16.76 0.06 18.95 0.06 C24.72 0.07 30.49 0.1 36.25 0.13 C42.14 0.17 48.02 0.18 53.91 0.19 C65.46 0.23 77 0.28 88.55 0.34 C89.61 2.22 89.61 2.22 90.55 4.34 C88.98 7.48 86.26 7.74 83.05 8.97 C62.94 17.28 55.8 38.38 47.36 56.96 C46.57 58.71 45.77 60.45 44.96 62.2 C44.21 63.83 43.46 65.47 42.73 67.11 C40.58 71.77 38.41 74.94 34.55 78.34 C34.22 78.67 33.89 79 33.55 79.34 C29.45 79.56 25.35 79.53 21.25 79.53 C19.19 79.53 17.13 79.55 15.07 79.57 C13.78 79.57 12.48 79.57 11.15 79.57 C9.96 79.58 8.77 79.58 7.54 79.58 C4.55 79.34 4.55 79.34 1.55 77.34 C1.78 68.35 4.62 60.35 7.55 51.97 C8.25 49.93 8.94 47.9 9.64 45.87 C10.27 44.04 10.9 42.22 11.53 40.39 C14.13 32.6 15.5 22.79 12.67 14.88 C8.49 9.16 1.16 7.67 -5.45 6.34 C-8.23 6.09 -10.66 6.12 -13.45 6.34 C-13.45 3.34 -13.45 3.34 -12.04 1.67 C-8.09 -0.36 -4.38 -0.05 0 0 Z " fill="#D6CFBA" transform="translate(300.4501953125,515.659423828125)"/>
<path d="M0 0 C4.08 2.04 6.66 3.96 10 7 C10 7.66 10 8.32 10 9 C11.05 9.15 11.05 9.15 12.12 9.31 C15.44 10.11 18.07 11.27 21 13 C21.5 14.49 21.5 14.49 22 16 C20.8 16.41 19.61 16.83 18.38 17.25 C9.15 20.83 5.23 26.14 1 35 C-1.92 46.94 -1.11 60.03 -1 72.25 C-0.97 75.17 -0.95 78.09 -0.94 81.02 C-0.93 82.29 -0.91 83.56 -0.9 84.87 C-1 88 -1 88 -2 91 C-6.58 91.09 -11.17 91.14 -15.75 91.19 C-17.05 91.21 -18.35 91.24 -19.7 91.26 C-20.95 91.27 -22.2 91.28 -23.48 91.29 C-24.64 91.31 -25.79 91.32 -26.98 91.34 C-30.35 90.96 -31.7 90.49 -34 88 C-35.03 84.15 -35.15 80.44 -35.21 76.47 C-35.23 75.16 -35.25 73.86 -35.27 72.52 C-35.28 71.11 -35.3 69.7 -35.32 68.29 C-35.34 66.84 -35.36 65.39 -35.38 63.94 C-35.43 60.14 -35.48 56.33 -35.53 52.53 C-35.58 48.64 -35.64 44.75 -35.69 40.86 C-35.8 33.24 -35.9 25.62 -36 18 C-37.13 17.95 -38.26 17.9 -39.43 17.85 C-40.91 17.78 -42.39 17.7 -43.88 17.62 C-44.62 17.59 -45.37 17.56 -46.14 17.53 C-51.77 17.23 -51.77 17.23 -54 15 C-54 13.02 -54 11.04 -54 9 C-36.84 9 -19.68 9 -2 9 C-1.34 6.03 -0.68 3.06 0 0 Z " fill="#D6CFBA" transform="translate(475,505)"/>
<path d="M0 0 C11.68 10.23 18.41 22.36 23.33 36.85 C23.63 37.71 23.92 38.57 24.23 39.46 C26.11 45.33 27.02 50.96 27.39 57.1 C28.05 57.1 28.71 57.1 29.39 57.1 C29.84 60.61 29.53 61.9 27.5 64.89 C26.68 65.82 25.86 66.76 25.02 67.72 C22.65 70.47 20.41 73.07 18.39 76.1 C16.23 75.59 14.39 75.1 12.39 74.1 C9.11 74.19 5.84 74.36 2.56 74.55 C-0.61 74.1 -0.61 74.1 -2.89 72.08 C-7.42 64.19 -6.98 55.65 -7.17 46.79 C-7.4 22.45 -7.4 22.45 -19.61 2.1 C-22.34 0.22 -22.34 0.22 -24.61 -0.9 C-24.61 -1.56 -24.61 -2.22 -24.61 -2.9 C-21.83 -4.39 -19.22 -5.41 -16.17 -6.15 C-15.06 -6.44 -15.06 -6.44 -13.92 -6.73 C-8.3 -7.15 -4.14 -3.34 0 0 Z " fill="#D5CEB9" transform="translate(529.60546875,521.90234375)"/>
<path d="M0 0 C0.66 0.33 1.32 0.66 2 1 C4.91 1.1 7.79 1.14 10.7 1.14 C11.6 1.15 12.5 1.15 13.43 1.15 C15.39 1.16 17.35 1.17 19.31 1.17 C22.41 1.18 25.52 1.19 28.62 1.21 C37.44 1.26 46.25 1.31 55.07 1.33 C60.46 1.34 65.86 1.37 71.25 1.41 C73.3 1.42 75.36 1.42 77.41 1.42 C80.29 1.42 83.17 1.44 86.04 1.47 C87.32 1.46 87.32 1.46 88.62 1.45 C94.42 1.54 94.42 1.54 97.56 4.03 C98.27 5.01 98.27 5.01 99 6 C97 6.53 95.03 7 92.98 7.32 C87.34 8.24 82.05 9.88 76.69 11.81 C76.01 12.05 75.32 12.28 74.62 12.53 C68.29 14.89 64.32 18.68 61.12 24.69 C60.69 25.45 60.26 26.22 59.82 27.01 C57.5 35.45 61.05 44.53 63.44 52.62 C64.06 54.78 64.69 56.94 65.31 59.1 C65.6 60.12 65.89 61.13 66.2 62.17 C68.03 68.63 69.24 74.27 69 81 C65.64 80.72 64.32 80.35 62.01 77.81 C60 75.01 58.52 72.29 57.05 69.17 C56.25 67.49 56.25 67.49 55.43 65.77 C54.88 64.59 54.32 63.41 53.75 62.19 C53.17 60.96 52.59 59.74 52 58.52 C49.9 54.12 47.81 49.72 45.73 45.32 C38.51 30.14 30.38 17.25 14.01 11.03 C10.35 9.78 6.68 8.61 2.96 7.58 C1 7 1 7 -1 6 C-0.67 4.02 -0.34 2.04 0 0 Z " fill="#D6CFBA" transform="translate(107,514)"/>
<path d="M0 0 C1.69 -0.03 1.69 -0.03 3.41 -0.06 C4.45 -0.07 5.49 -0.07 6.56 -0.08 C7.48 -0.09 8.4 -0.1 9.35 -0.11 C10.08 0.01 10.81 0.13 11.56 0.25 C12.22 1.24 12.88 2.23 13.56 3.25 C12.57 3.25 11.58 3.25 10.56 3.25 C6.39 3.36 2.22 3.49 -1.94 3.62 C-3.32 3.67 -4.69 3.71 -6.06 3.75 C-8.04 3.8 -10.02 3.87 -12 3.93 C-13.19 3.97 -14.37 4.01 -15.6 4.04 C-18.38 4.06 -18.38 4.06 -20.44 5.25 C-23.32 5.32 -26.18 5.34 -29.06 5.31 C-29.86 5.31 -30.67 5.3 -31.49 5.3 C-33.47 5.29 -35.46 5.27 -37.44 5.25 C-38.1 3.93 -38.76 2.61 -39.44 1.25 C-26.3 0.61 -13.16 0.13 0 0 Z " fill="#3D3E3F" transform="translate(460.4375,230.75)"/>
<path d="M0 0 C5.93 2.51 9.88 6.47 13 12 C11.4 13.18 9.8 14.34 8.19 15.5 C7.29 16.15 6.4 16.8 5.48 17.47 C3 19 3 19 0 19 C-2.56 16.44 -1.93 10.43 -2 7 C-1.58 4.47 -0.91 2.41 0 0 Z " fill="#FBFDFD" transform="translate(475,505)"/>
<path d="M0 0 C3.08 -0.06 6.17 -0.09 9.25 -0.12 C10.56 -0.15 10.56 -0.15 11.89 -0.18 C12.74 -0.18 13.58 -0.19 14.45 -0.2 C15.23 -0.21 16 -0.22 16.8 -0.23 C19.26 0.03 20.87 0.78 23 2 C19.02 4.71 14.86 4.22 10.25 4.12 C9.46 4.12 8.66 4.11 7.85 4.1 C5.9 4.07 3.95 4.04 2 4 C1.34 2.68 0.68 1.36 0 0 Z " fill="#3A3B3C" transform="translate(421,232)"/>
<path d="M0 0 C1.19 0.01 2.38 0.02 3.6 0.03 C4.52 0.04 5.43 0.05 6.38 0.06 C6.38 0.72 6.38 1.38 6.38 2.06 C7.04 2.39 7.69 2.72 8.38 3.06 C5.37 4.56 2.58 4.16 -0.75 4.12 C-2.03 4.12 -3.31 4.11 -4.63 4.1 C-6.11 4.08 -6.11 4.08 -7.62 4.06 C-7.95 3.07 -8.29 2.08 -8.62 1.06 C-5.74 -0.38 -3.21 -0.03 0 0 Z " fill="#000002" transform="translate(1194.625,53.9375)"/>
</svg>
